<svg xmlns="http://www.w3.org/2000/svg" width="1024" height="1024" viewBox="0 0 1024 1024" role="img" aria-label="Requiescat icon">
  <defs>
    <linearGradient id="sky" x1="0" y1="0" x2="0" y2="1">
      <stop offset="0" stop-color="#22364a"/>
      <stop offset="1" stop-color="#101820"/>
    </linearGradient>
    <linearGradient id="stone" x1="0" y1="0" x2="1" y2="1">
      <stop offset="0" stop-color="#d6d8d2"/>
      <stop offset="0.55" stop-color="#9fa49f"/>
      <stop offset="1" stop-color="#6e7674"/>
    </linearGradient>
    <linearGradient id="grass" x1="0" y1="0" x2="0" y2="1">
      <stop offset="0" stop-color="#4d8f4a"/>
      <stop offset="1" stop-color="#1d522d"/>
    </linearGradient>
    <filter id="shadow" x="-20%" y="-20%" width="140%" height="140%">
      <feDropShadow dx="0" dy="18" stdDeviation="24" flood-color="#05090b" flood-opacity="0.38"/>
    </filter>
  </defs>

  <rect width="1024" height="1024" rx="216" fill="url(#sky)"/>
  <circle cx="742" cy="240" r="138" fill="#d9b95f" opacity="0.2"/>

  <g filter="url(#shadow)">
    <path d="M232 806c72-69 164-104 276-104s204 35 276 104v72H232v-72Z" fill="#173922"/>
    <path d="M178 842c78-44 190-68 334-68s256 24 334 68v84H178v-84Z" fill="url(#grass)"/>
    <path d="M222 847c30-33 49-65 56-98 19 27 29 59 31 96m29 0c20-47 28-94 24-141 36 42 55 89 57 141m37 0c18-31 27-65 27-102 31 27 48 61 52 102m43 0c18-50 25-98 20-144 39 40 59 88 62 144m42 0c12-35 14-70 8-105 33 30 51 65 55 105" fill="none" stroke="#6fba62" stroke-width="18" stroke-linecap="round"/>
  </g>

  <g filter="url(#shadow)">
    <path d="M328 774V372c0-102 82-184 184-184s184 82 184 184v402H328Z" fill="url(#stone)"/>
    <path d="M382 760V383c0-72 58-130 130-130s130 58 130 130v377" fill="none" stroke="#edf0e7" stroke-width="18" opacity="0.45"/>
    <path d="M410 782h204" stroke="#5e6765" stroke-width="34" stroke-linecap="round" opacity="0.45"/>
    <text x="512" y="456" text-anchor="middle" font-family="Georgia, 'Times New Roman', serif" font-size="112" font-weight="700" letter-spacing="4" fill="#303837">R.I.P.</text>
    <path d="M410 538h204M430 600h164" stroke="#4a5453" stroke-width="22" stroke-linecap="round" opacity="0.55"/>
  </g>

  <path d="M244 870c92 26 181 39 268 39s176-13 268-39" stroke="#8cc971" stroke-width="24" stroke-linecap="round" opacity="0.85"/>
</svg>
